<svg xmlns="http://www.w3.org/2000/svg" viewBox="0 0 1200 320" width="1200" height="320" role="img" aria-label="buradane - ihtiyac odakli kamusal alan bulma platformu">
  <defs>
    <linearGradient id="bg" x1="0" y1="0" x2="1" y2="1">
      <stop offset="0%" stop-color="#0d1117"/>
      <stop offset="55%" stop-color="#0f2118"/>
      <stop offset="100%" stop-color="#0b1d26"/>
    </linearGradient>
    <linearGradient id="accent" x1="0" y1="0" x2="1" y2="0">
      <stop offset="0%" stop-color="#3fb950"/>
      <stop offset="50%" stop-color="#39d3bb"/>
      <stop offset="100%" stop-color="#4c8dff"/>
    </linearGradient>
    <linearGradient id="markAccent" gradientUnits="userSpaceOnUse" x1="72" y1="108" x2="146" y2="190">
      <stop offset="0%" stop-color="#3fb950"/>
      <stop offset="60%" stop-color="#39d3bb"/>
      <stop offset="100%" stop-color="#4c8dff"/>
    </linearGradient>
    <radialGradient id="glow" cx="0.5" cy="0.5" r="0.5">
      <stop offset="0%" stop-color="#3fb950" stop-opacity="0.5"/>
      <stop offset="100%" stop-color="#3fb950" stop-opacity="0"/>
    </radialGradient>
  </defs>

  <rect width="1200" height="320" fill="url(#bg)"/>
  <circle cx="960" cy="150" r="230" fill="url(#glow)"/>
  <rect x="0" y="0" width="1200" height="4" fill="url(#accent)"/>

  <g>
    <g stroke="#1e3b2c" stroke-width="1.2">
      <path d="M812 88 L1160 88"/><path d="M812 140 L1160 140"/><path d="M812 192 L1160 192"/><path d="M812 244 L1160 244"/>
      <path d="M860 68 L860 258"/><path d="M948 68 L948 258"/><path d="M1036 68 L1036 258"/><path d="M1124 68 L1124 258"/>
    </g>
    <g fill="none" stroke="#2b6b39" stroke-width="1.2" opacity="0.8">
      <path d="M846 214 Q930 176 1010 208 T1152 186"/>
      <path d="M846 236 Q930 200 1010 230 T1152 210"/>
    </g>
    <g>
      <path d="M948 96 C948 96 928 76 928 64 A20 20 0 0 1 968 64 C968 76 948 96 948 96 Z" fill="#3fb950"/>
      <circle cx="948" cy="64" r="7" fill="#0b1d26"/>
      <path d="M1036 168 C1036 168 1018 150 1018 139 A18 18 0 0 1 1054 139 C1054 150 1036 168 1036 168 Z" fill="#39d3bb" opacity="0.9"/>
      <path d="M872 200 C872 200 856 184 856 174 A16 16 0 0 1 888 174 C888 184 872 200 872 200 Z" fill="#4c8dff" opacity="0.75"/>
    </g>
    <g transform="translate(1000,86)">
      <rect width="150" height="40" rx="20" fill="#10261a" stroke="#2b6b39" stroke-width="1.4"/>
      <path d="M18 20 L26 28 L40 12" stroke="#5fd977" stroke-width="3" fill="none" stroke-linecap="round"/>
      <path d="M46 20 L54 28 L68 12" stroke="#5fd977" stroke-width="3" fill="none" stroke-linecap="round"/>
      <text x="104" y="25" text-anchor="middle" font-family="ui-monospace, monospace" font-size="12" fill="#5fd977">2 kimlik</text>
    </g>
  </g>

  <g transform="translate(72,108)" fill="none" stroke="url(#markAccent)" stroke-width="7" stroke-linecap="round">
    <path d="M38 78 C38 78 8 46 8 28 A30 30 0 0 1 68 28 C68 46 38 78 38 78 Z"/>
    <circle cx="38" cy="28" r="11"/>
  </g>

  <text x="176" y="128" font-family="ui-monospace, SFMono-Regular, Menlo, Consolas, monospace" font-size="46" font-weight="700" fill="#e6edf3">buradane</text>
  <text x="178" y="172" font-family="-apple-system, BlinkMacSystemFont, Segoe UI, Helvetica, Arial, sans-serif" font-size="23" fill="#8b98a9">Burada ne var? &#304;htiya&#231;-odakl&#305; kamusal alan bulma platformu.</text>

  <g font-family="-apple-system, BlinkMacSystemFont, Segoe UI, Helvetica, Arial, sans-serif" font-size="14.5" font-weight="600">
    <g transform="translate(178,204)">
      <rect width="155" height="34" rx="17" fill="#102a16" stroke="#2b6b39"/>
      <text x="77" y="22" text-anchor="middle" fill="#5fd977">konsens&#252;s kap&#305;s&#305;</text>
    </g>
    <g transform="translate(347,204)">
      <rect width="236" height="34" rx="17" fill="#0f2a24" stroke="#1f6f5c"/>
      <text x="118" y="22" text-anchor="middle" fill="#56d4b4">ger&#231;ek moderasyon d&#246;ng&#252;s&#252;</text>
    </g>
    <g transform="translate(597,204)">
      <rect width="160" height="34" rx="17" fill="#0f2130" stroke="#1f4f7a"/>
      <text x="80" y="22" text-anchor="middle" fill="#6cb6ff">bilinmeyen &#8800; hay&#305;r</text>
    </g>
  </g>

  <text x="178" y="272" font-family="ui-monospace, SFMono-Regular, Menlo, Consolas, monospace" font-size="14" fill="#5c6b7f">FastAPI &#183; PostGIS &#183; 85 backend testi &#183; veri: OSM / ODbL &#183; kod: MIT</text>
</svg>
